<?xml version="1.0" encoding="UTF-8" standalone="no"?>
<!DOCTYPE svg PUBLIC "-//W3C//DTD SVG 1.1//EN" "http://www.w3.org/Graphics/SVG/1.1/DTD/svg11.dtd">
<svg width="100%" height="100%" viewBox="0 0 1000 1000" version="1.1" xmlns="http://www.w3.org/2000/svg" xmlns:xlink="http://www.w3.org/1999/xlink" xml:space="preserve" xmlns:serif="http://www.serif.com/" style="fill-rule:evenodd;clip-rule:evenodd;stroke-linejoin:round;stroke-miterlimit:2;">
    <g>
        <g transform="matrix(1.0867,0,0,1.0867,-86.6996,-62.9735)">
            <circle cx="539.891" cy="518.058" r="460.109" style="fill:url(#_Linear1);"/>
        </g>
        <g transform="matrix(3.79752,0,0,3.79752,-616.219,51.4491)">
            <path d="M331.793,77.253C331.129,77.226 330.477,77.214 329.84,77.214C323.657,77.214 318.7,78.401 315.258,79.611C311.815,80.824 309.881,82.058 309.688,82.183C308.691,82.83 308.084,83.914 308.056,85.103C308.054,85.183 308.052,85.262 308.052,85.338C308.052,86.361 308.217,87.345 308.494,88.257C308.736,89.056 309.063,89.801 309.442,90.498C310.104,91.717 310.924,92.787 311.806,93.751C312.549,94.56 313.339,95.296 314.138,95.966C308.623,95.025 303.005,94.772 297.418,95.214C272.178,97.205 200.17,97.096 200.17,97.096C212.934,92.07 248.933,79.562 255.459,78.537C291.149,72.939 319.077,75.442 331.793,77.253Z" style="fill:white;fill-rule:nonzero;"/>
            <path d="M319.01,125.52C318.828,125.344 318.625,125.188 318.437,125.023C318.231,124.877 318.043,124.712 317.835,124.577C317.429,124.292 317.006,124.045 316.571,123.84C316.139,123.628 315.693,123.466 315.243,123.358C315.02,123.296 314.791,123.261 314.567,123.222C314.341,123.199 314.118,123.173 313.892,123.175C313.445,123.173 313.002,123.202 312.572,123.308C311.715,123.496 310.918,123.884 310.202,124.412C309.843,124.674 309.502,124.968 309.191,125.297C308.868,125.614 308.574,125.967 308.295,126.331C307.745,127.071 307.255,127.873 306.849,128.725C306.447,129.578 306.097,130.468 305.824,131.384C305.542,132.298 305.321,133.235 305.163,134.187C304.992,135.136 304.889,136.1 304.839,137.07C304.778,138.036 304.784,139.012 304.831,139.981C304.93,141.921 305.245,143.851 305.809,145.708C305.953,146.172 306.112,146.63 306.285,147.083C306.373,147.306 306.467,147.529 306.564,147.753C306.667,147.97 306.758,148.196 306.867,148.411C306.976,148.625 307.081,148.846 307.205,149.054C307.316,149.266 307.443,149.471 307.569,149.68C307.689,149.889 307.833,150.082 307.963,150.285C308.11,150.476 308.245,150.679 308.401,150.864C308.694,151.252 309.032,151.593 309.376,151.936C309.731,152.265 310.113,152.568 310.519,152.841C310.93,153.103 311.368,153.338 311.835,153.523C312.302,153.708 312.796,153.831 313.31,153.919C312.793,153.996 312.264,153.993 311.732,153.943C311.201,153.876 310.675,153.74 310.163,153.555C309.655,153.361 309.167,153.111 308.697,152.824C308.583,152.753 308.471,152.674 308.356,152.597C308.242,152.521 308.13,152.442 308.024,152.357L307.698,152.104L307.387,151.837C306.561,151.111 305.859,150.262 305.245,149.36C304.631,148.455 304.123,147.485 303.697,146.483C303.273,145.481 302.933,144.447 302.674,143.395C302.41,142.344 302.233,141.268 302.122,140.193C302.007,139.115 301.981,138.031 302.007,136.946C302.045,135.862 302.154,134.778 302.333,133.703C302.521,132.627 302.78,131.564 303.121,130.521C303.473,129.48 303.896,128.458 304.428,127.48C304.963,126.507 305.589,125.567 306.341,124.718C307.09,123.869 307.966,123.102 308.976,122.514C309.476,122.209 310.022,121.977 310.581,121.786C311.139,121.595 311.729,121.483 312.317,121.436C313.495,121.342 314.682,121.556 315.716,122.027C316.233,122.262 316.721,122.544 317.159,122.879C317.597,123.214 318.005,123.575 318.364,123.978C319.098,124.765 319.656,125.673 320.103,126.607C319.741,126.231 319.398,125.852 319.01,125.52ZM313.31,115.46C305.462,115.46 299.101,125.602 299.101,138.113C299.101,150.626 305.462,160.768 313.31,160.768C321.155,160.768 327.516,150.626 327.516,138.113C327.516,125.602 321.155,115.46 313.31,115.46Z" style="fill:white;fill-rule:nonzero;"/>
            <path d="M389.597,118.648C389.453,118.504 389.298,118.378 389.148,118.245C388.989,118.122 388.839,117.993 388.672,117.881C388.352,117.652 388.017,117.446 387.67,117.276C387.326,117.102 386.968,116.967 386.606,116.873C386.248,116.776 385.884,116.717 385.519,116.712C385.158,116.703 384.797,116.724 384.447,116.803C383.748,116.947 383.095,117.258 382.511,117.681C382.217,117.89 381.938,118.125 381.682,118.389C381.421,118.645 381.18,118.93 380.954,119.221C380.507,119.817 380.107,120.461 379.778,121.145C379.452,121.83 379.17,122.544 378.95,123.278C378.721,124.013 378.544,124.765 378.415,125.529C378.28,126.29 378.198,127.063 378.156,127.838C378.112,128.617 378.118,129.395 378.159,130.174C378.245,131.728 378.506,133.274 378.97,134.757C379.435,136.238 380.11,137.663 381.089,138.868C381.327,139.173 381.6,139.447 381.882,139.714C382.17,139.975 382.478,140.21 382.807,140.428C383.139,140.634 383.492,140.813 383.868,140.951C384.241,141.092 384.638,141.183 385.046,141.245C384.635,141.298 384.218,141.289 383.795,141.242C383.377,141.177 382.966,141.065 382.564,140.916C382.164,140.76 381.782,140.557 381.415,140.325C381.056,140.087 380.707,139.828 380.392,139.535C379.746,138.959 379.199,138.283 378.721,137.566C378.242,136.849 377.848,136.082 377.516,135.292C376.858,133.706 376.464,132.019 376.297,130.318C376.209,129.466 376.188,128.611 376.211,127.756C376.241,126.898 376.329,126.043 376.47,125.197C376.617,124.348 376.823,123.51 377.09,122.685C377.366,121.865 377.698,121.06 378.112,120.29C378.532,119.52 379.023,118.783 379.611,118.113C380.195,117.446 380.88,116.841 381.667,116.377C382.452,115.91 383.348,115.592 384.271,115.519C385.187,115.439 386.119,115.595 386.932,115.96C387.341,116.139 387.726,116.356 388.075,116.618C388.422,116.876 388.748,117.155 389.036,117.473C389.621,118.087 390.079,118.792 390.446,119.529C390.167,119.224 389.9,118.918 389.597,118.648ZM385.046,110.665C378.806,110.665 373.749,118.73 373.749,128.678C373.749,138.624 378.806,146.689 385.046,146.689C391.284,146.689 396.34,138.624 396.34,128.678C396.34,118.73 391.284,110.665 385.046,110.665Z" style="fill:white;fill-rule:nonzero;"/>
            <path d="M200.505,142.729C199.215,142.673 198.297,141.455 198.596,140.199C199.106,138.063 200.281,135.292 202.955,135.292C207.307,135.292 232.903,136.487 232.903,136.487C232.903,136.487 235.256,138.35 236.692,141.257C237.382,142.653 236.313,144.277 234.757,144.21L200.505,142.729Z" style="fill:white;fill-rule:nonzero;"/>
            <path d="M197.964,100.14C197.964,100.14 201.827,101.699 205.859,102.194C207.145,102.352 207.782,103.825 207.036,104.883C206.127,106.173 204.642,107.563 202.321,108.023C197.621,108.953 191.452,106.946 191.452,106.946C191.452,106.946 193.018,103.91 197.964,100.14Z" style="fill:white;fill-rule:nonzero;"/>
            <path d="M275.041,112.549C275.041,112.549 283.058,106.105 284.598,102.737C284.598,102.737 260.109,107.089 245.605,105.638C245.605,105.638 246.714,111.184 250.81,112.549C250.81,112.549 257.549,115.535 275.041,112.549Z" style="fill:white;fill-rule:nonzero;"/>
            <path d="M396.774,111.268C396.682,111.038 396.567,110.817 396.461,110.594C396.355,110.369 396.26,110.139 396.141,109.921L395.771,109.22L395.365,108.539C395.23,108.311 395.075,108.097 394.931,107.874C394.334,106.999 393.666,106.17 392.941,105.392C391.483,103.844 389.811,102.497 388.023,101.345C387.129,100.768 386.207,100.235 385.267,99.738C384.324,99.247 383.362,98.794 382.387,98.372C378.479,96.698 374.376,95.542 370.225,94.71C370.179,94.701 370.133,94.692 370.087,94.683C367.148,94.103 364.334,93.003 361.82,91.373C331.944,71.998 311.645,85.193 311.645,85.193C311.519,90.35 318.115,94.765 321.592,96.731C322.856,97.445 324.28,97.816 325.732,97.806L364.687,97.52C366.37,97.599 368.052,97.717 369.727,97.904C373.762,98.353 377.771,99.117 381.619,100.385C382.579,100.704 383.529,101.055 384.463,101.443C385.394,101.836 386.31,102.265 387.203,102.737C388.989,103.68 390.677,104.814 392.187,106.161C392.937,106.839 393.64,107.57 394.282,108.356C394.438,108.556 394.605,108.749 394.753,108.956L395.198,109.575L395.613,110.217C395.753,110.43 395.869,110.657 396,110.877C396.496,111.769 396.925,112.704 397.263,113.677C397.596,114.651 397.85,115.655 398.034,116.677C397.865,114.842 397.473,113.017 396.774,111.268Z" style="fill:white;fill-rule:nonzero;"/>
            <path d="M189.833,120.93L191.254,121.09C191.727,121.144 192.202,121.186 192.675,121.234C193.62,121.342 194.569,121.421 195.515,121.513C196.46,121.605 197.409,121.677 198.354,121.761L199.773,121.889L201.193,121.995L204.031,122.222L206.871,122.415L208.289,122.514C208.762,122.552 209.235,122.582 209.709,122.607L212.548,122.773C220.118,123.217 227.69,123.493 235.266,123.688L240.95,123.777L242.371,123.807L243.082,123.823L243.793,123.824L246.635,123.831L252.323,123.868L255.168,123.845L258.014,123.837L260.861,123.84L263.707,123.791C265.606,123.763 267.505,123.746 269.407,123.735C273.208,123.692 277.01,123.578 280.83,123.618C279.889,123.772 278.945,123.903 278.003,124.047L275.17,124.439C274.225,124.573 273.279,124.691 272.333,124.816L270.914,124.994C270.44,125.053 269.966,125.094 269.492,125.144C267.595,125.33 265.696,125.51 263.796,125.677L260.945,125.923L258.088,126.094L255.232,126.255L252.374,126.401C251.421,126.453 250.467,126.465 249.514,126.49L246.652,126.556C242.837,126.674 239.019,126.589 235.202,126.559C227.569,126.36 219.94,125.884 212.353,125.016C210.457,124.791 208.561,124.573 206.672,124.284L203.839,123.868L201.015,123.389L199.605,123.142L198.199,122.869C197.263,122.679 196.325,122.513 195.394,122.295C193.529,121.888 191.667,121.461 189.833,120.93Z" style="fill:white;fill-rule:nonzero;"/>
            <path d="M385.475,146.666L350.124,147.592L385.385,144.905L385.475,146.666Z" style="fill:white;fill-rule:nonzero;"/>
            <path d="M313.429,160.779L279.593,161.135L313.365,159.017L313.429,160.779Z" style="fill:white;fill-rule:nonzero;"/>
        </g>
    </g>
    <defs>
        <linearGradient id="_Linear1" x1="0" y1="0" x2="1" y2="0" gradientUnits="userSpaceOnUse" gradientTransform="matrix(-906.92,920.218,-920.218,-906.92,986.702,57.9493)"><stop offset="0" style="stop-color:rgb(249,155,30);stop-opacity:1"/><stop offset="1" style="stop-color:rgb(255,0,0);stop-opacity:1"/></linearGradient>
    </defs>
</svg>
