<?xml version="1.0" encoding="UTF-8" standalone="no"?>
<!DOCTYPE svg PUBLIC "-//W3C//DTD SVG 1.1//EN" "http://www.w3.org/Graphics/SVG/1.1/DTD/svg11.dtd">
<svg width="100%" height="100%" viewBox="0 0 800 800" version="1.1" xmlns="http://www.w3.org/2000/svg" xmlns:xlink="http://www.w3.org/1999/xlink" xml:space="preserve" xmlns:serif="http://www.serif.com/" style="fill-rule:evenodd;clip-rule:evenodd;stroke-linejoin:round;stroke-miterlimit:2;">
    <g transform="matrix(1.05821,0,0,1.05821,-46.5657,-54.0023)">
        <circle cx="422.002" cy="429.03" r="377.998" style="fill:url(#_Linear1);"/>
        <clipPath id="_clip2">
            <circle cx="422.002" cy="429.03" r="377.998"/>
        </clipPath>
        <g clip-path="url(#_clip2)">
            <g transform="matrix(9.99095,0,0,9.99095,-2107.02,-929.61)">
                <path d="M200.505,142.729C199.215,142.673 198.297,141.455 198.596,140.199C199.106,138.063 200.281,135.292 202.955,135.292C207.307,135.292 232.903,136.487 232.903,136.487C232.903,136.487 235.256,138.35 236.692,141.257C237.382,142.653 236.313,144.277 234.757,144.21L200.505,142.729Z" style="fill:white;fill-rule:nonzero;"/>
                <path d="M275.041,112.549C275.041,112.549 283.058,106.105 284.598,102.737C284.598,102.737 260.109,107.089 245.605,105.638C245.605,105.638 246.714,111.184 250.81,112.549C250.81,112.549 257.549,115.535 275.041,112.549Z" style="fill:white;fill-rule:nonzero;"/>
                <path d="M189.833,120.93L191.254,121.09C191.727,121.144 192.202,121.186 192.675,121.234C193.62,121.342 194.569,121.421 195.515,121.513C196.46,121.605 197.409,121.677 198.354,121.761L199.773,121.889L201.193,121.995L204.031,122.222L206.871,122.415L208.289,122.514C208.762,122.552 209.235,122.582 209.709,122.607L212.548,122.773C220.118,123.217 227.69,123.493 235.266,123.688L240.95,123.777L242.371,123.807L243.082,123.823L243.793,123.824L246.635,123.831L252.323,123.868L255.168,123.845L258.014,123.837L260.861,123.84L263.707,123.791C265.606,123.763 267.505,123.746 269.407,123.735C273.208,123.692 277.01,123.578 280.83,123.618C279.889,123.772 278.945,123.903 278.003,124.047L275.17,124.439C274.225,124.573 273.279,124.691 272.333,124.816L270.914,124.994C270.44,125.053 269.966,125.094 269.492,125.144C267.595,125.33 265.696,125.51 263.796,125.677L260.945,125.923L258.088,126.094L255.232,126.255L252.374,126.401C251.421,126.453 250.467,126.465 249.514,126.49L246.652,126.556C242.837,126.674 239.019,126.589 235.202,126.559C227.569,126.36 219.94,125.884 212.353,125.016C210.457,124.791 208.561,124.573 206.672,124.284L203.839,123.868L201.015,123.389L199.605,123.142L198.199,122.869C197.263,122.679 196.325,122.513 195.394,122.295C193.529,121.888 191.667,121.461 189.833,120.93Z" style="fill:white;fill-rule:nonzero;"/>
                <path d="M313.429,160.779L279.593,161.135L313.365,159.017L313.429,160.779Z" style="fill:white;fill-rule:nonzero;"/>
            </g>
        </g>
    </g>
    <defs>
        <linearGradient id="_Linear1" x1="0" y1="0" x2="1" y2="0" gradientUnits="userSpaceOnUse" gradientTransform="matrix(-404.7,633.137,-633.137,-404.7,620.053,109.297)"><stop offset="0" style="stop-color:rgb(249,155,30);stop-opacity:1"/><stop offset="1" style="stop-color:rgb(255,119,0);stop-opacity:1"/></linearGradient>
    </defs>
</svg>
